<svg xmlns="http://www.w3.org/2000/svg" width="1920" height="940" viewBox="0 0 1920 940">
  <defs>
    <style>
      .cls-1 {
        fill-rule: evenodd;
      }
    </style>
  </defs>
  <path id="Color_Fill_1" data-name="Color Fill 1" class="cls-1" d="M0,0H1920V940h-55c-40.84-14.119-66.64-52.618-99-77-7.42-5.593-6.68-17.724-15-23l-6,3c-5.31-3.875-14.17-10.968-17-17q-1.005-7-2-14c-2.12-2.726-12.42-7.567-16-12,3.47-8.7,2.03-19.5,1-28-6.37,1.313-5.66,3.569-12,5-8.04-7.418-17.59-12.925-25-21,0.65-9.3,4.43-9.8,6-18-9.35-11.1-.13-10.982-4-22-1.44-4.092-5.88-1.391-8-4-3.75-4.606-3.92-18.25-9-23l-11-2q-4.995-4.5-10-9c-11.82-4.188-31.48-1.879-41-9h-2c-16.77-15.286-20.05-65.811-63-50-20.51,7.548-39.31,43.574-44,67v40c-4.74,14.372-16.1,32.422-20,48l8-2c0.33,0.667.67,1.333,1,2,6.77,41.892,8.61,31.085,31,54v5c-34.86,51.262-76.92,15.009-120,27-0.75-4.455-1.25-4.2-3-7-9.51,1.284-8.99-.007-17-3v6h-8v-6c-19.46,2.521-30.07-2.956-46-6-16.84-3.217-41.52,9.021-51-6l-6-23-21-36c12.75-33.007,4.26-65.753-38-65-0.27-20.454.83-36.978,2-56l60,2,6,7,22,3c11.79,1.586,10.4-9.658,22-8,20.03,2.863,33.29,13.692,54,9,8.96-20.183-3.32-17.58-13-28q3.495-6,7-12c-1.63-2.557-1.23-2.424-4-4-10.17-3.654-17,5.842-26,5-9.88-.924-25.36-13.252-34-16-11.05-3.515-24.23,2.613-30,4-6.8,1.633-46.25-1.165-54-2-0.36-7.419-2.59-9.731-5-15,7.41-5.395,7.57-13.541,7-27h3q10.005,6,20,12c8.48-5.249,7.87-18.737,13-27,14.11-3.115,16.76,6.377,26-6,13.86-7.306,13.79-27.9,31-32l6,5c10.24-4.52,20.38-19.1,17-36q-7.995-19-16-38,1.005-18,2-36c-6.9-34.942-6.09-67.287-25-89-19.68-22.594-46.29-50.252-79-59-31.51-8.428-79.17-.814-102,7l-16-1c-48.63,10.828-76.71,43.617-95,86-17.535,40.634-30.983,57.7-7,101-3.146,15.678-25.673,59.971-2,72l12,1q0.5,11,1,22l6,4,9-11c12.6,2.328,9.26,7.119,15,16q7.005,3.5,14,7c4.57,6.681,4.51,15.356,11,20h1c4.84-2.78,6.5-5.715,13-7,2.3,3.21,2.25,3.836,7,5-5.17,8.861-31.46,55.6-37,59l-12,3q-8,11-16,22c-23.034,8.151-44.108-8.68-53,16-8.591,23.846-.021,59.166-9,79h-4c-31.138-26.32-67.722-49.777-95-80-19.262-21.342-23.07-54.157-50-68-27.658-14.217-63.826,2.1-74,21q-1,8-2,16c-4.222,7.874-18.049,14.9-12,30,8.363,18.839,29.794,30.658,41,48-5.728,40.963,9.682,45.1,27,76,22.913,40.89,42.059,84.952,68,123q-0.5,1.5-1,3H0V0ZM997,688c6.56,0.374,10.66,2.48,14,6-1.67,1.667-3.33,3.333-5,5-5.17,11.1-17.5,19.091-27,26-0.626-17.046,2.722-28.03,11-36Zm206,39c12.39,2.515,19.72,8.611,28,15-0.05,8.814-3.41,15.635-8,20C1211.02,757.23,1205.33,741.325,1203,727ZM985,744c-0.7,6.3-2.238,6.318-5,10l-3,1h-1l4-11h5Zm217,73c16.62,3.042,38.66,9.447,46,22v3q-24.99-10-50-20C1199.33,820.333,1200.67,818.667,1202,817Z"/>
</svg>
