<svg xmlns="http://www.w3.org/2000/svg" width="1920" height="1260" viewBox="0 0 1920 1260">
  <defs>
    <style>
      .cls-1 {
        fill-rule: evenodd;
      }
    </style>
  </defs>
  <path id="Color_Fill_1" data-name="Color Fill 1" class="cls-1" d="M0,0H1920V799l-174-1c34.53-65.885,14.14-125.992-63-137-26.61-3.8-42.5,18.16-68,19-2.6-18.969,2.8-45.993-6-61-83.64-9.417-194.62-22.133-290-14l-115,1c-56.38,8.548-116.54-1.1-165,12-15.04,31.4,4.91,160.174,14,186l-76-1-23-12c-20.678-5.474-74.806,6.99-93,10l-42,2c-30.618,4.574-40.368-7.931-59-13L628,803l-37-5-94,1c-16.526-2.943-40.372-10.9-63-6l-33,10c-38.51,7.6-74.933-14.709-113-8-14.736,2.6-32.3-3.447-50,0-26.511,5.163-66.677,9.938-100,5-22.606-3.35-81.033-5.874-105-1L0,809V0ZM1674,692c62.22-1.168,82.69,65.848,40,99-20.97,16.285-91.44,3.247-115,5,2.7-8.381,1.17-19.161,5-29,0.67-.333,1.33-0.667,2-1,3.63-6.105,10.19-6.8,14-12,9.17-12.511,9.55-32.916,19-45,0.33-.667.67-1.333,1-2C1648.68,697.916,1661.83,698.039,1674,692Z"/>
</svg>
